<svg xmlns="http://www.w3.org/2000/svg" xmlns:xlink="http://www.w3.org/1999/xlink" width="88.403" height="79.088" viewBox="0 0 88.403 79.088"><defs><style>.a{fill:url(#a);}</style><linearGradient id="a" x1="-0.373" y1="-0.507" x2="0.5" y2="1" gradientUnits="objectBoundingBox"><stop offset="0" stop-color="#ffd037"/><stop offset="1" stop-color="#eab302"/><stop offset="1" stop-color="#e9b200"/></linearGradient></defs><g transform="translate(0 -19.6)"><g transform="translate(0 19.6)"><g transform="translate(0 0)"><path class="a" d="M76.046,19.6H12.357C6.388,19.6,0,22.851,0,31.957v42.7c0,9.106,6.388,12.357,12.357,12.357H35.932v7.871H32.015a1.9,1.9,0,1,0,0,3.8h25.1a1.9,1.9,0,1,0,0-3.8H52.472V87.015H76.046c9.106,0,12.357-6.388,12.357-12.357v-42.7C88.4,22.851,82.016,19.6,76.046,19.6ZM48.669,94.885H39.734V87.015h8.935v7.871ZM84.6,74.657c0,2.567-.837,8.555-8.555,8.555H12.357c-2.567,0-8.555-.837-8.555-8.555V71.939H84.6Zm0-6.5H3.8V32.034c0-7.719,5.989-8.555,8.555-8.555H76.046c2.567,0,8.555.837,8.555,8.555Z" transform="translate(0 -19.6)"/></g></g></g></svg>