<svg xmlns="http://www.w3.org/2000/svg" width="1639.152" height="444.03" viewBox="0 0 1639.152 444.03"><defs><style>.a{fill:#ebf8fc;}.b{opacity:0.3;}.c{fill:#919191;}.d{fill:#00a7e7;}.e{fill:#00b7e6;}</style></defs><g transform="translate(8.392 -7345.051)"><path class="a" d="M-.137,993.533l1600.958,12.352v383.4l-227.282,46.194-140.11-46.864-54.959,20.141,9.839-37.33-75.31-29-45,16.124-69.161-9.839-69.312,17L789.4,1394.343,650.553,1367.8l-65.666-17.585-68.393,10.741-42.012-16.3-73.246,28.519,9.413,36.362-53.2-18.7-136.634,45.055L-.137,1391.152Z" transform="translate(1600.684 8782.614) rotate(180)"/><g transform="translate(-8.392 7345.051)"><g transform="translate(0 0)"><g class="b" transform="translate(0 13.331)"><path class="c" d="M137.386,128.413l.18-.06.24-.569L24.983,13.673l-1.019-.629L7.607,156.274l-.03.479Zm-.539-.629L8.386,155.855,24.533,14.272Z" transform="translate(254.858 -9.119)"/><path class="c" d="M113.4,156.514l.419.06L130.147,13.493v-.3l-.6-.15L4.442,127.245l-.509.479Zm-.18-.839L61.183,142.044l.03-.12h-.389L5.4,127.3,129.338,14.212Z" transform="translate(149.334 -8.94)"/><path class="c" d="M58.011,105.567h0l93.26-21.69.929-.24L22.45,13l-.389-.18L-1.1,74.32l-.03,45.057ZM22.45,13.835l127.712,69.5L58.73,104.7v-.419l-.569.539L-.378,118.449V74.56Z" transform="translate(2.805 35.087)"/><path class="c" d="M89.805,91.088,51.968,9.571l-.24-.509L2.686,68.379l-.389.479Zm-1.288-1.049-84.9-21.6,47.9-58.029Z" transform="translate(101.958 175.84)"/><path class="c" d="M41.632,86.583l.24.449L89.565,30.112l.15-.18-.3-.569L3.046,7.344,2.3,7.164Zm.419-.839L3.615,8.243l85.2,21.69Z" transform="translate(101.958 236.756)"/><path class="c" d="M62.643,107.6l.15.3L189.876,52.652l.989-.33L18.245,8.494l-.719-.18Zm.509-.629L18.814,9.422l169.774,43.05Z" transform="translate(542.963 181.442)"/><path class="c" d="M39.334,212.246l.24.929L139.185,8.38l.629-1.228L7.758,99.9l-.24.18Zm.389-1.049L8.357,100.352l129.6-91.013Z" transform="translate(253.149 110.973)"/><path class="c" d="M56.941,155.955l.12.479,83.284-44.248.509-.21L22.909,10.927l-.809-.779Zm.569-.629L23.328,12.155l116.238,99.7Z" transform="translate(675.419 77.959)"/><path class="c" d="M189.81,155.837l.6.18L155.658,10.749l-.12-.6L18.149,111.679l-.629.449Zm-.389-.809-170.253-43.2L155.088,11.378Z" transform="translate(542.79 78.317)"/><path class="c" d="M44.956,105.04v1.528l40.8-79.989.18-.419L.168,7.256l-.719-.12Zm.449-.869L.707,8.155,84.92,26.639Z" transform="translate(19.485 218.06)"/><path class="c" d="M23.016,141.863l.06.18.24.24H24l39.125-34.6L17.534,7.171Zm.749-.36L18.373,10.8l43.949,96.645Z" transform="translate(543.195 181.296)"/><path class="c" d="M46.742,212.026l.06.419h.509l134-133.015.389-.419L11.9,7.171Zm.629-.719L12.83,8.4,180.416,79.31Z" transform="translate(380.073 111.134)"/><path class="c" d="M68.211,145.361l.479.509L112.43,33.407l.15-.389L4.7,7.314l-.779-.15Zm.359-.989L42.687,88.83l.479-.479-.749-.15L5.239,8.213,111.651,33.527Z" transform="translate(148.986 177.918)"/><path class="c" d="M74.838,141.923l.809-.06-.509-.539L69.625,7.171,16,111.546l-.24.569Zm-.449-.779L16.9,111.366,69.026,10.077Z" transform="translate(491.823 181.656)"/><path class="c" d="M99.858,141.055l.12.18h7.19V7.531l-.06-.36h-.389L23.255,51.419Zm6.591-.6h-6.112L24.393,51.569,106.449,8.1Z" transform="translate(708.865 182.345)"/><path class="c" d="M140.1,155.828l.569.479.06-144.219-.36-.479L22.7,54.449l-.6.24Zm-.09-1.049L23.5,54.959,140.012,12.538Z" transform="translate(675.303 34.317)"/><path class="c" d="M181.417,136.585l.629.3L157.6,12.018l-.06-.419L12.752,64.505l-.869.359Zm-.3-.929L13.86,64.925,156.971,12.558Z" transform="translate(379.552 54.04)"/><path class="c" d="M85.992,97.034,79.4,10.545l-.06-.749L-.018,77.472l-.539.539Zm-.779-.959L1.061,77.592,78.713,11.234Z" transform="translate(19.311 147.904)"/><path class="c" d="M57.272,89.494l.629.959,1.8-65.129v-.3L6.7,11.094l-.9-.21Zm0-1.378L7.422,12.052,58.95,25.564Z" transform="translate(203.514 121.891)"/><path class="c" d="M139.007,11.949,139.7,10.9,9.527,39.33l-.24.06L7.52,103.651v.689Zm-1.468.18-129.27,90.8L9.977,39.989Z" transform="translate(253.207 107.525)"/><path class="c" d="M8.736,96.51l.09.869L58.047,37.762l.24-.3L2.684,10.081l-.6-.3Zm.659-.929L2.954,11.009,57.208,37.7Z" transform="translate(95.819 148.009)"/><path class="c" d="M94.114,79.523l.539.3.419-67.646v-.419L1.813,33.537l-.989.24Zm-.21-.869L2.981,33.986l91.343-21.3Z" transform="translate(59.302 106.368)"/><path class="c" d="M61.06,27.209l.539-.479L4.409,11.75,3.93,79.216v.809Zm-.959-.06L4.739,78.407,5.1,12.679Z" transform="translate(149.247 106.375)"/><path class="c" d="M112.1,89.664l.9.18L61.528,11.263,61.2,10.9,4.427,63.391l-.509.479Zm-.719-.929L5.416,63.511,61.138,11.982Z" transform="translate(148.899 121.901)"/><path class="c" d="M41.166,136.285l.09.539L178.674,35.3l.749-.509L17.229,11.659l-.509-.06Zm.569-.749L17.619,12.438l159.917,22.8Z" transform="translate(519.623 54.099)"/><path class="c" d="M16.4,96.6l.36.569L58.67,11.1l.33-.689L-.857,24.4l-.27.06V63.59ZM57.651,11.522,16.758,95.615-.378,63.35V25.034Z" transform="translate(2.805 129.251)"/><path class="c" d="M79.512,29.3l.419-.36-37.6-18.484-.479-.06L.153,96.043-.566,97.63Zm-.869-.24L1.591,94.814,42.3,11.2Z" transform="translate(19.05 129.453)"/><path class="c" d="M8.566,20.7a4.539,4.539,0,1,1-9.077,0A4.482,4.482,0,0,1,4.043,16.2,4.457,4.457,0,0,1,8.566,20.7Z" transform="translate(20.643 27.746)"/><path class="c" d="M12.905,18.428a4.539,4.539,0,1,1-4.524-4.554A4.47,4.47,0,0,1,12.905,18.428Z" transform="translate(146.293 99.818)"/><path class="c" d="M12.885,16.137A4.5,4.5,0,0,1,8.3,20.69a4.489,4.489,0,0,1-4.524-4.554,4.554,4.554,0,0,1,9.107,0Z" transform="translate(144.845 169.814)"/><path class="c" d="M11.3,14.171a4.554,4.554,0,1,1-9.107,0A4.464,4.464,0,0,1,6.749,9.677,4.5,4.5,0,0,1,11.3,14.171Z" transform="translate(99.004 229.749)"/><path class="c" d="M8.4,14.848A4.5,4.5,0,0,1,3.843,19.4,4.489,4.489,0,0,1-.681,14.848a4.539,4.539,0,0,1,9.077,0Z" transform="translate(15.72 209.719)"/><path class="c" d="M14.09,13.487A4.539,4.539,0,1,1,9.567,8.933,4.5,4.5,0,0,1,14.09,13.487Z" transform="translate(180.608 252.782)"/><path class="c" d="M14.761,17.974a4.539,4.539,0,1,1-4.554-4.584A4.552,4.552,0,0,1,14.761,17.974Z" transform="translate(200.039 114.742)"/><path class="c" d="M16.527,17.416a4.539,4.539,0,1,1-4.554-4.524A4.514,4.514,0,0,1,16.527,17.416Z" transform="translate(251.18 130.219)"/><path class="c" d="M16.481,15.3a4.554,4.554,0,1,1-4.524-4.524A4.526,4.526,0,0,1,16.481,15.3Z" transform="translate(248.979 195.572)"/><path class="c" d="M17.536,11.538a4.554,4.554,0,1,1-4.524-4.494A4.475,4.475,0,0,1,17.536,11.538Z" transform="translate(279.53 311.263)"/><path class="c" d="M14.994,11.613a4.475,4.475,0,0,1-4.524,4.494,4.539,4.539,0,1,1,4.524-4.494Z" transform="translate(206.787 311.727)"/><path class="c" d="M11.052,10.873a3.715,3.715,0,0,1-3.775,3.745A3.715,3.715,0,0,1,3.5,10.873a3.775,3.775,0,1,1,7.549,0Z" transform="translate(136.881 312.047)"/><path class="c" d="M8.435,10.834a3.747,3.747,0,0,1-3.775,3.8,3.775,3.775,0,1,1,0-7.549A3.715,3.715,0,0,1,8.435,10.834Z" transform="translate(60.229 311.397)"/><path class="c" d="M20.506,10.849a3.775,3.775,0,1,1-7.549,0,3.775,3.775,0,1,1,7.549,0Z" transform="translate(410.653 312.731)"/><path class="c" d="M23.225,11.844a3.79,3.79,0,1,1-7.579,0,3.79,3.79,0,1,1,7.579,0Z" transform="translate(488.522 281.927)"/><path class="c" d="M25.173,10.849a3.775,3.775,0,1,1-3.775-3.8A3.766,3.766,0,0,1,25.173,10.849Z" transform="translate(545.801 312.731)"/><path class="c" d="M28.944,10.867a3.775,3.775,0,1,1-3.775-3.8A3.766,3.766,0,0,1,28.944,10.867Z" transform="translate(654.974 312.173)"/><path class="c" d="M26.5,12.023a3.79,3.79,0,1,1-3.8-3.8A3.791,3.791,0,0,1,26.5,12.023Z" transform="translate(583.418 276.386)"/><path class="c" d="M20.85,18.4A4.539,4.539,0,1,1,16.3,13.847,4.526,4.526,0,0,1,20.85,18.4Z" transform="translate(376.366 100.654)"/><path class="c" d="M26.523,16A4.507,4.507,0,0,1,22,20.556a4.554,4.554,0,1,1,0-9.107A4.507,4.507,0,0,1,26.523,16Z" transform="translate(539.778 174.861)"/><path class="c" d="M32.254,14.5A4.554,4.554,0,1,1,27.7,10.009,4.539,4.539,0,0,1,32.254,14.5Z" transform="translate(705.738 219.471)"/><path class="c" d="M34.909,15.965a4.524,4.524,0,1,1-4.554-4.524A4.514,4.514,0,0,1,34.909,15.965Z" transform="translate(784.36 175.139)"/><path class="c" d="M34.9,11.608A4.554,4.554,0,1,1,30.35,7.054,4.507,4.507,0,0,1,34.9,11.608Z" transform="translate(782.448 310.953)"/><path class="c" d="M11.005,17.14a4.524,4.524,0,1,1-9.047,0,4.524,4.524,0,1,1,9.047,0Z" transform="translate(92.141 140.561)"/><path class="c" d="M9.749,17.666a4.524,4.524,0,1,1-4.524-4.524A4.526,4.526,0,0,1,9.749,17.666Z" transform="translate(55.769 122.479)"/><path class="c" d="M4.9,15.8a3.024,3.024,0,0,1-3.056,3.026A3.017,3.017,0,0,1-1.183,15.8,3.062,3.062,0,0,1,1.843,12.74,3.069,3.069,0,0,1,4.9,15.8Z" transform="translate(1.183 137.92)"/><path class="c" d="M17.083,22.221a4.539,4.539,0,1,1-4.524-4.554A4.552,4.552,0,0,1,17.083,22.221Z" transform="translate(267.281 -17.667)"/><path class="c" d="M25.68,20.125a4.539,4.539,0,1,1-9.077,0,4.539,4.539,0,0,1,9.077,0Z" transform="translate(516.235 46.353)"/><path class="c" d="M31.068,19.378a4.554,4.554,0,0,1-9.107,0,4.554,4.554,0,1,1,9.107,0Z" transform="translate(671.393 70.437)"/><path class="c" d="M34.988,20.83a4.489,4.489,0,0,1-4.524,4.554,4.539,4.539,0,1,1,4.524-4.554Z" transform="translate(784.91 24.527)"/><path class="c" d="M19.293,62.648l-.264.117.03.467.761.527-.03-.527L145.3,8.759,93.135,96.936h-.378l.875.587L146.5,8.115l.584-.938Z" transform="translate(586.511 225.871)"/><path class="c" d="M93.123,41.057,19.4,7.177l-.353.584L93.18,41.935Z" transform="translate(586.963 281.459)"/></g><g transform="translate(5.812 0)"><path class="d" d="M154.29,57.424l1.348-.06L69.717,10.45l-.24-.12L4.049,60.48l-.869.689Zm-1.348-.689L5.367,60.36,69.568,11.2Z" transform="translate(121.716 181.103)"/><path class="d" d="M120.651,120.443l.36.3,20.042-41.073.12-.359L10.315,7.859,8.188,6.691Zm.18-.869L12.083,9.627,140.244,79.669Z" transform="translate(266.739 230.549)"/><path class="d" d="M126.934,116.159l.719.419L100.181,7.11l-.12-.419L.121,46.476l-.24.06v.539Zm-.389-.989L1.049,46.9,99.582,7.62Z" transform="translate(26.183 234.713)"/><path class="d" d="M30.555,119.514l.18.629L154.073,7.44l.36-.27-.719-.479L3.622,10.376H3.2Zm.539-.719L4.1,11.065,153.084,7.38Z" transform="translate(122.382 231.148)"/><path class="d" d="M90.545,61.263l.479.06.419.479,130.588,71.331,1.678.929L118.2,8.147l-.15-.12L6.093,14.168H6l-.629.6Zm130.2,70.342L91.894,61.263l-.569-.629h-.479L7.052,14.828,117.718,8.776Z" transform="translate(185.25 177.205)"/><path class="d" d="M25.765,73.416l.12.449,65.669-50.3.389-.359-.959-.479L3.027,10.384l-.6-.06Zm.449-.719L3.536,11.193,90.565,23.386Z" transform="translate(99.939 168.587)"/><path class="d" d="M101.582,15.621,17.819,9.06,17.579,9,.144,55.465l-.27.689ZM98.5,16.1,1.1,54.926,18.059,9.779Z" transform="translate(25.98 225.963)"/><path class="d" d="M111.334,71.862l.839.12,58.808-55.123.629-.6L3.215,12.065,1.717,12Zm.569-.659h-.3L4.653,12.754l165.22,4.164Z" transform="translate(79.35 120.111)"/><path class="d" d="M60.632,11.745l1.318-1.228L16.324,28.222l-.33-.869L.446,68.846Zm-1.827.749L2.184,66.209,16.114,29.061Z" transform="translate(42.544 167.825)"/><path class="d" d="M83.373,73.872l.569.06L60.634,10.869l-.15-.539L.957,66.741l-.509.6Zm-.449-.749L2.036,66.741,60.185,11.618Z" transform="translate(42.602 168.341)"/><path class="d" d="M49.951,160.155l.33.869,24.356-64.71.09-.18L-.738,11.832Zm.33-1.168L1.089,14.948,73.858,96.314Z" transform="translate(8.258 36.251)"/><path class="d" d="M73.776,142.978l.24.3L226.833,14.847l1.049-.869L-.131,59.545l-.6.12Zm.33-.689L.648,60.144,225.305,15.266Z" transform="translate(8.489 -10.293)"/><path class="d" d="M60.786,61.788l.15.15,92.182-46.166L7.34,12.207Zm.24-.719L9.2,12.986l141.044,3.505Z" transform="translate(242.182 124.103)"/><path class="d" d="M171.523,101.562h.18l143.59,3.565h.449l-22.8-91.043-.09-.359L3.907,96.708l-2.217.629Zm143.29,2.846L172,100.9l-.3-.33-.33.33L6.3,96.708,292.315,14.593Z" transform="translate(78.568 35.467)"/><path class="d" d="M114.355,179.512,100.724,8.6l-.06-.569L9.471,53.657l-.359.24Zm-.869-2.157L10.22,54.137l89.815-45Z" transform="translate(293.497 131.634)"/><path class="d" d="M34.211,104.972l.33,1.288,20.971-75.2.09-.27L12.042,13.869l-.659-.18Zm.389-1.528L12.4,14.8,54.793,31.185Z" transform="translate(359.261 35.383)"/><path class="d" d="M141.231,56.319l1.078-.24L33.381,13.9l-.389-.18L12.261,87.955l-.12.659ZM140,55.9,13.13,87.625,33.471,14.707Z" transform="translate(381.211 52.16)"/><path class="d" d="M136.036,66.231l.629-.06L87.2,8.352l-.3-.3L13.357,76.686l-.779.719Zm-.809-.659L14.615,76.507,86.875,9.1Z" transform="translate(393.866 233.112)"/><path class="d" d="M99.753,112.613l.27.18L216.5,57.849l.15-.06.3-.719L13.2,10.545l-1.078-.21Zm.389-.659L14.072,11.5l201.5,46.046Z" transform="translate(380.748 129.33)"/><path class="d" d="M64.382,121.6l.33.33,67.5-112.493.569-1.019L15.49,63.781l-.449.18Zm.24-.9L16.149,64.2,131.01,10.066Z" transform="translate(465.19 177.623)"/><path class="d" d="M25.863,178.895l.03.749L99.77,110.86l.24-.24L12.861,8.852l-.719-.809Zm.659-.749L13.011,10.14l86.01,100.42Z" transform="translate(381.24 131.143)"/><path class="d" d="M118.13,61.614l.839-.03L65.613,12.063l-.09-.06h-.629L6.116,67.126l-.749.659ZM65.284,12.662l51.948,48.263L7.314,66.946,65.164,12.662Z" transform="translate(185.048 124.367)"/><path class="d" d="M291.981,60.1l1.108-.3L155.85,13.968,3.033,142.309l-1.318,1.108Zm-1.288-.36L4.741,141.83,155.94,14.807Z" transform="translate(79.292 -10.133)"/><path class="d" d="M55.885,54.172,66.311,16.844l.18-.659L12.236,36.557l-.869.36Zm-.479-.989L13.344,36.916,65.412,17.353Z" transform="translate(358.797 12.695)"/><path class="d" d="M162.1,49.971h.419v-.479L143.347,15.909l-.15-.24L23.753,39.546l-2.606.539Zm-.569-.779L26.48,39.725,142.837,16.478Z" transform="translate(642.009 32.354)"/><path class="d" d="M44.52,53.567l.719,1.108V15.64L25.646,19.565l-.449.06Zm-.03-1.588L26.305,20.164,44.49,16.509Z" transform="translate(759.29 28.518)"/><path class="d" d="M159.77,216.863l.839,1.108v-.929l.959-.06-.959-.509V18.749L21.932,9.043h-.719Zm.09-1.168L22.621,9.792,159.86,19.468Z" transform="translate(643.921 62.857)"/><path class="d" d="M12.446,59.657,154.688,7.71l2.546-1.019L32.129,18.045h-.21L12.027,58.968l-.09.21ZM151.872,7.919,12.9,58.788,32.4,18.764Z" transform="translate(375.304 291.633)"/><path class="d" d="M216.872,127.57l.3.06L285.9,12.95l.449-.779-144.129,36.1h0L13.545,80.386l-1.438.419ZM142.515,49.5V48.93l142.362-35.65-68.1,113.512L15.133,80.745l126.9-31.7Z" transform="translate(380.227 59.489)"/><path class="d" d="M175.935,143.439l.749.03L85.072,7.968l-.15-.3-.569.359L16.677,120.671Zm-.719-.839-157.4-22.469L84.742,8.657Z" transform="translate(512.566 178.553)"/><path class="d" d="M110.829,143.589l.12.21,115.819-42.121.479-.3-.419-.33L20.115,8.177l-1.2-.509Zm.419-.659L20.924,9.286l204.795,92Z" transform="translate(577.432 178.223)"/><path class="d" d="M19.376,124.519l207.88,93.26L88.4,9.539l-.27-.479L19.137,123.92l-.21.419Zm205.963,91.552L19.976,123.92,88.131,10.408Z" transform="translate(577.722 62.54)"/><path class="d" d="M22.533,59.751l.09.18,88.137,12.4,1.947.27L2.671,12.477,1.742,12Zm.569-.479L3.21,13.586,108.9,71.375Z" transform="translate(80.074 119.699)"/><path class="d" d="M1.163,77.33l44.7-17.316.3-.12L25.669,12.68l-.389-.839L.983,76.491l-.03.06ZM45.231,59.415,1.762,76.311,25.339,13.788Z" transform="translate(57.226 119.676)"/><path class="d" d="M6.629,113.589l.09,1.708L22.058,74.614l.03-.18L.248,10.5Zm.6-1.708-5.962-96.2,20.1,58.748Z" transform="translate(36.81 121.793)"/><path class="d" d="M15.6,22.613a4.449,4.449,0,1,1-4.464-4.494A4.412,4.412,0,0,1,15.6,22.613Z" transform="translate(223.707 -18.119)"/><path class="d" d="M10.616,18.324a4.456,4.456,0,0,1-4.494,4.434,4.464,4.464,0,1,1,0-8.928A4.469,4.469,0,0,1,10.616,18.324Z" transform="translate(77.642 114.661)"/><path class="d" d="M11.241,16.719a4.43,4.43,0,0,1-4.464,4.434,4.434,4.434,0,1,1,0-8.868A4.43,4.43,0,0,1,11.241,16.719Z" transform="translate(96.609 162.551)"/><path class="d" d="M9.058,18.212a4.479,4.479,0,1,1-4.494-4.494A4.481,4.481,0,0,1,9.058,18.212Z" transform="translate(32.525 118.098)"/><path class="d" d="M8.069,21.057A4.425,4.425,0,0,1,3.6,25.551a4.464,4.464,0,1,1,0-8.928A4.412,4.412,0,0,1,8.069,21.057Z" transform="translate(4.754 28.195)"/><path class="d" d="M16.21,18.155a4.479,4.479,0,1,1-4.464-4.464A4.481,4.481,0,0,1,16.21,18.155Z" transform="translate(239.634 118.934)"/><path class="d" d="M14.22,16.32a4.479,4.479,0,1,1-4.464-4.434A4.412,4.412,0,0,1,14.22,16.32Z" transform="translate(182.007 174.814)"/><path class="d" d="M9.291,14.858a4.444,4.444,0,0,1-4.464,4.494,4.479,4.479,0,1,1,0-8.957A4.437,4.437,0,0,1,9.291,14.858Z" transform="translate(39.272 221.004)"/><path class="d" d="M11.96,14.675a4.464,4.464,0,1,1-4.494-4.494A4.462,4.462,0,0,1,11.96,14.675Z" transform="translate(117.43 227.598)"/><path class="d" d="M8.669,13.316a4.464,4.464,0,1,1-8.928,0A4.4,4.4,0,0,1,4.175,8.882,4.437,4.437,0,0,1,8.669,13.316Z" transform="translate(22.129 267.872)"/><path class="d" d="M7.939,14.587A4.43,4.43,0,0,1,3.5,19.051a4.479,4.479,0,1,1,0-8.958A4.418,4.418,0,0,1,7.939,14.587Z" transform="translate(0.989 230.322)"/><path class="d" d="M12.888,11.083A4.464,4.464,0,1,1,8.424,6.589,4.437,4.437,0,0,1,12.888,11.083Z" transform="translate(144.303 338.8)"/><path class="d" d="M17.941,16.521a4.479,4.479,0,0,1-8.958,0,4.479,4.479,0,0,1,8.958,0Z" transform="translate(289.761 168.651)"/><path class="d" d="M17,14.738a4.464,4.464,0,1,1-8.928,0,4.464,4.464,0,0,1,8.928,0Z" transform="translate(263.467 223.79)"/><path class="d" d="M21.376,12.449a4.464,4.464,0,1,1-4.494-4.494A4.437,4.437,0,0,1,21.376,12.449Z" transform="translate(390.101 296.541)"/><path class="d" d="M20.762,11.018A4.412,4.412,0,0,1,16.3,15.452a4.434,4.434,0,1,1,0-8.868A4.412,4.412,0,0,1,20.762,11.018Z" transform="translate(371.452 339.044)"/><path class="d" d="M23.865,14.657a4.479,4.479,0,1,1-4.494-4.464A4.437,4.437,0,0,1,23.865,14.657Z" transform="translate(461.31 227.286)"/><path class="d" d="M25.452,12.732a4.464,4.464,0,1,1-8.928,0,4.464,4.464,0,0,1,8.928,0Z" transform="translate(508.135 285.952)"/><path class="d" d="M27.771,16.478a4.479,4.479,0,1,1-8.957,0,4.479,4.479,0,0,1,8.957,0Z" transform="translate(574.421 169.923)"/><path class="d" d="M34.613,13.359a4.464,4.464,0,1,1-8.928,0,4.464,4.464,0,0,1,8.928,0Z" transform="translate(773.451 266.481)"/><path class="d" d="M30.768,11.951a4.449,4.449,0,1,1-8.9,0,4.449,4.449,0,0,1,8.9,0Z" transform="translate(662.946 310.071)"/><path class="d" d="M20.226,21.025a4.479,4.479,0,1,1-8.958,0,4.479,4.479,0,0,1,8.958,0Z" transform="translate(355.931 29.155)"/><path class="d" d="M21.976,21.772a4.464,4.464,0,1,1-4.434-4.464A4.418,4.418,0,0,1,21.976,21.772Z" transform="translate(407.476 6.958)"/><path class="d" d="M25.229,19.165a4.464,4.464,0,1,1-4.464-4.494A4.437,4.437,0,0,1,25.229,19.165Z" transform="translate(501.678 88.595)"/><path class="d" d="M30.025,20.365a4.464,4.464,0,1,1-4.464-4.494A4.412,4.412,0,0,1,30.025,20.365Z" transform="translate(640.562 51.475)"/><path class="d" d="M34.622,20.053a4.464,4.464,0,1,1-4.494-4.524A4.437,4.437,0,0,1,34.622,20.053Z" transform="translate(773.683 62.033)"/><path class="d" d="M32.494,20.155a3.371,3.371,0,1,1-3.355-3.325A3.356,3.356,0,0,1,32.494,20.155Z" transform="translate(775.391 24.003)"/><path class="d" d="M34,21.1a4.464,4.464,0,1,1-8.928,0A4.464,4.464,0,0,1,34,21.1Z" transform="translate(755.7 26.924)"/><path class="d" d="M20.985,18.077a4.481,4.481,0,0,1-4.494,4.464,4.479,4.479,0,1,1,4.494-4.464Z" transform="translate(377.91 122.278)"/><path class="d" d="M37.728,9.181l-16.911,45L-.1,19.01l-.731.177L20.526,55.113l.2.177h.41L38.546,9.007Z" transform="translate(5.55 226.608)"/><path class="d" d="M39.039,10.212-.835,21.447l.584.585,39.29-11.118Z" transform="translate(5.437 223.764)"/></g></g><g transform="translate(798.465 0)"><g class="b" transform="translate(0 13.669)"><path class="c" d="M8.007,131.339l-.184-.061-.246-.584,115.684-117,1.044-.645,16.772,146.862.031.492Zm.553-.645,131.718,28.783L123.721,14.3Z" transform="translate(430.491 -9.02)"/><path class="c" d="M21.1,160.152l-.43.061L3.933,13.5V13.2l.614-.154,128.278,117.1.522.491Zm.184-.86,53.357-13.977-.031-.123h.4l56.828-14.99L4.762,14.242Z" transform="translate(550.187 -8.836)"/><path class="c" d="M95.45,107.919h0L-.175,85.679l-.952-.246L131.912,13l.4-.184L156.057,75.88l.031,46.2ZM131.912,13.86.962,85.126l93.751,21.9v-.43l.584.553,60.023,13.977v-45Z" transform="translate(682.88 36.302)"/><path class="c" d="M2.3,93.168l38.8-83.583.246-.522L91.625,69.883l.4.491Zm1.321-1.075L90.672,69.945l-49.118-59.5Z" transform="translate(641.765 180.529)"/><path class="c" d="M51.6,88.6l-.246.461L2.451,30.694,2.3,30.51l.307-.584L91.164,7.348l.768-.184Zm-.43-.86L90.58,8.27,3.219,30.51Z" transform="translate(641.857 242.941)"/><path class="c" d="M149,110.113l-.154.307L18.54,53.776l-1.014-.338,177-44.94.737-.184Zm-.522-.645L193.939,9.451,19.861,53.592Z" transform="translate(70.726 186.253)"/><path class="c" d="M110.546,217.447l-.246.952L8.163,8.411,7.518,7.152l135.4,95.1.246.184Zm-.4-1.075,32.162-113.656L9.423,9.394Z" transform="translate(430.243 113.969)"/><path class="c" d="M108.141,159.652l-.123.491-85.4-45.37-.522-.215L143.036,10.947l.829-.8Zm-.584-.645,35.049-146.8L23.421,114.435Z" transform="translate(-18.383 80.193)"/><path class="c" d="M18.134,159.531l-.614.184L53.153,10.764l.123-.614,140.872,104.1.645.461Zm.4-.829,174.57-44.3-139.367-103Z" transform="translate(71.378 80.56)"/><path class="c" d="M41.471,107.522v1.567L-.367,27.072l-.184-.43L87.394,7.259l.737-.123Zm-.461-.891L86.841,8.18.493,27.133Z" transform="translate(733.142 223.77)"/><path class="c" d="M58.665,145.279l-.061.184-.246.246h-.707L17.534,110.229,64.287,7.171Zm-.768-.369L63.427,10.888l-45.063,99.1Z" transform="translate(201.454 186.075)"/><path class="c" d="M150.285,217.22l-.061.43H149.7L12.3,81.263l-.4-.43L186.01,7.171Zm-.645-.737L185.058,8.43,13.222,81.14Z" transform="translate(252.764 114.134)"/><path class="c" d="M49.414,148.866l-.491.522L4.075,34.073l-.154-.4L114.536,7.318l.8-.154Zm-.369-1.014L75.586,90.9l-.491-.491.768-.154L113.983,8.239,4.873,34.2Z" transform="translate(568.569 182.611)"/><path class="c" d="M16.589,145.34l-.829-.061.522-.553L21.934,7.171,76.919,114.192l.246.584Zm.461-.8L76,114.008,22.549,10.151Z" transform="translate(243.069 186.444)"/><path class="c" d="M30.75,144.449l-.123.184H23.255V7.54l.061-.369h.4l85.58,45.37Zm-6.758-.614h6.266l77.87-91.14L23.992,8.123Z" transform="translate(-19.292 187.15)"/><path class="c" d="M22.741,159.485l-.584.491L22.1,12.1l.369-.491,120.66,43.927.614.246Zm.092-1.075L142.3,56.058,22.833,12.561Z" transform="translate(-18.133 35.482)"/><path class="c" d="M12.528,139.754l-.645.307L36.949,12.029l.061-.43L185.47,65.847l.891.369Zm.307-.952,171.5-72.525L37.594,12.582Z" transform="translate(252.967 55.704)"/><path class="c" d="M-.557,99.247,6.2,10.564,6.262,9.8,87.634,79.188l.553.553Zm.8-.983L86.528,79.311,6.907,11.27Z" transform="translate(733.271 151.903)"/><path class="c" d="M8.292,91.488l-.645.983L5.8,25.69v-.307L60.144,11.1l.922-.215Zm0-1.413L59.407,12.082,6.572,25.936Z" transform="translate(564.996 125.258)"/><path class="c" d="M8.227,11.975,7.52,10.9,140.989,40.051l.246.061L143.047,106v.707Zm1.505.184,132.548,93.106-1.751-64.538Z" transform="translate(430.302 110.528)"/><path class="c" d="M52.892,98.709,52.8,99.6,2.331,38.471l-.246-.307L59.1,10.088l.614-.307Zm-.676-.952,6.6-86.717L3.191,38.41Z" transform="translate(680.59 152.01)"/><path class="c" d="M1.807,81.241l-.553.307L.824,12.187v-.43L96.449,34.089l1.014.246Zm.215-.891,93.229-45.8L1.592,12.709Z" transform="translate(681.574 109.364)"/><path class="c" d="M4.483,27.6l-.553-.492L62.57,11.75l.491,69.177v.829Zm.983-.061L62.233,80.1l-.369-67.4Z" transform="translate(620.565 109.371)"/><path class="c" d="M4.84,91.661l-.922.184L56.691,11.273l.338-.369,58.21,53.818.522.491Zm.737-.952L114.226,64.845,57.091,12.01Z" transform="translate(568.234 125.268)"/><path class="c" d="M158.483,139.447l-.092.553L17.488,35.9l-.768-.522L183.027,11.66l.522-.061Zm-.584-.768,24.728-126.22L18.655,35.835Z" transform="translate(107.196 55.765)"/><path class="c" d="M42.554,98.789l-.369.584L-.789,11.121l-.338-.707L60.247,24.759l.276.061V64.938ZM.255,11.551l41.93,86.225L59.756,64.693V25.4Z" transform="translate(778.444 132.793)"/><path class="c" d="M-.136,29.775l-.43-.369L37.985,10.453l.491-.061L81.236,98.214l.737,1.628Zm.891-.246L79.761,96.955,38.016,11.221Z" transform="translate(739.762 132.999)"/><path class="c" d="M-.511,20.811a4.654,4.654,0,1,0,9.308,0A4.6,4.6,0,0,0,4.127,16.2,4.57,4.57,0,0,0-.511,20.811Z" transform="translate(811.249 28.86)"/><path class="c" d="M3.828,18.543a4.654,4.654,0,1,0,4.638-4.669A4.584,4.584,0,0,0,3.828,18.543Z" transform="translate(673.625 102.7)"/><path class="c" d="M3.778,16.251a4.616,4.616,0,0,0,4.7,4.669,4.6,4.6,0,0,0,4.638-4.669,4.669,4.669,0,0,0-9.338,0Z" transform="translate(675.18 174.414)"/><path class="c" d="M2.2,14.285a4.669,4.669,0,1,0,9.338,0A4.577,4.577,0,0,0,6.864,9.677,4.615,4.615,0,0,0,2.2,14.285Z" transform="translate(725.389 235.82)"/><path class="c" d="M-.681,14.962a4.609,4.609,0,0,0,4.669,4.669,4.6,4.6,0,0,0,4.638-4.669,4.654,4.654,0,0,0-9.308,0Z" transform="translate(816.641 215.299)"/><path class="c" d="M5.013,13.6A4.654,4.654,0,1,0,9.651,8.933,4.615,4.615,0,0,0,5.013,13.6Z" transform="translate(636.039 259.418)"/><path class="c" d="M5.684,18.09a4.654,4.654,0,1,0,4.669-4.7A4.667,4.667,0,0,0,5.684,18.09Z" transform="translate(614.756 117.99)"/><path class="c" d="M7.45,17.53a4.654,4.654,0,1,0,4.669-4.638A4.628,4.628,0,0,0,7.45,17.53Z" transform="translate(558.742 133.847)"/><path class="c" d="M7.374,15.419a4.669,4.669,0,1,0,4.638-4.638A4.641,4.641,0,0,0,7.374,15.419Z" transform="translate(561.122 200.804)"/><path class="c" d="M8.429,11.652a4.67,4.67,0,1,0,4.638-4.608A4.589,4.589,0,0,0,8.429,11.652Z" transform="translate(527.66 319.334)"/><path class="c" d="M5.917,11.729a4.589,4.589,0,0,0,4.638,4.608,4.654,4.654,0,1,0-4.638-4.608Z" transform="translate(607.366 319.809)"/><path class="c" d="M3.5,10.969a3.809,3.809,0,0,0,3.87,3.84,3.809,3.809,0,0,0,3.87-3.84,3.871,3.871,0,1,0-7.741,0Z" transform="translate(685.5 320.139)"/><path class="c" d="M.856,10.929a3.842,3.842,0,0,0,3.87,3.9,3.871,3.871,0,1,0,0-7.741A3.809,3.809,0,0,0,.856,10.929Z" transform="translate(769.426 319.473)"/><path class="c" d="M12.957,10.945a3.871,3.871,0,1,0,7.741,0,3.871,3.871,0,1,0-7.741,0Z" transform="translate(385.638 320.839)"/><path class="c" d="M15.646,11.94a3.886,3.886,0,1,0,7.772,0,3.886,3.886,0,1,0-7.772,0Z" transform="translate(300.318 289.279)"/><path class="c" d="M17.624,10.945a3.871,3.871,0,1,0,3.87-3.9A3.861,3.861,0,0,0,17.624,10.945Z" transform="translate(237.611 320.839)"/><path class="c" d="M21.394,10.963a3.871,3.871,0,1,0,3.87-3.9A3.861,3.861,0,0,0,21.394,10.963Z" transform="translate(118.035 320.268)"/><path class="c" d="M18.923,12.119a3.886,3.886,0,1,0,3.9-3.9A3.887,3.887,0,0,0,18.923,12.119Z" transform="translate(196.379 283.602)"/><path class="c" d="M11.773,18.516a4.654,4.654,0,1,0,4.669-4.669A4.641,4.641,0,0,0,11.773,18.516Z" transform="translate(421.626 103.557)"/><path class="c" d="M17.416,16.118a4.622,4.622,0,0,0,4.638,4.669,4.669,4.669,0,1,0,0-9.338A4.622,4.622,0,0,0,17.416,16.118Z" transform="translate(242.611 179.586)"/><path class="c" d="M23.147,14.617a4.67,4.67,0,1,0,4.669-4.608A4.654,4.654,0,0,0,23.147,14.617Z" transform="translate(60.836 225.29)"/><path class="c" d="M25.862,16.079a4.638,4.638,0,1,0,4.669-4.638A4.628,4.628,0,0,0,25.862,16.079Z" transform="translate(-25.217 179.87)"/><path class="c" d="M25.8,11.723a4.669,4.669,0,1,0,4.669-4.669A4.622,4.622,0,0,0,25.8,11.723Z" transform="translate(-23.185 319.016)"/><path class="c" d="M1.958,17.256a4.639,4.639,0,1,0,9.277,0,4.639,4.639,0,1,0-9.277,0Z" transform="translate(732.968 144.443)"/><path class="c" d="M.7,17.78A4.638,4.638,0,1,0,5.34,13.142,4.641,4.641,0,0,0,.7,17.78Z" transform="translate(772.806 125.918)"/><path class="c" d="M-1.183,15.873a3.1,3.1,0,0,0,3.133,3.1,3.094,3.094,0,0,0,3.1-3.1,3.14,3.14,0,0,0-3.1-3.133A3.146,3.146,0,0,0-1.183,15.873Z" transform="translate(835.635 141.74)"/><path class="c" d="M8.006,22.336a4.654,4.654,0,1,0,4.638-4.669A4.667,4.667,0,0,0,8.006,22.336Z" transform="translate(541.107 -17.667)"/><path class="c" d="M16.6,20.239a4.654,4.654,0,1,0,9.308,0,4.654,4.654,0,0,0-9.308,0Z" transform="translate(268.428 47.924)"/><path class="c" d="M21.961,19.493a4.67,4.67,0,0,0,9.338,0,4.669,4.669,0,1,0-9.338,0Z" transform="translate(98.453 72.599)"/><path class="c" d="M25.881,20.944a4.6,4.6,0,0,0,4.638,4.669,4.654,4.654,0,1,0-4.638-4.669Z" transform="translate(-25.881 25.562)"/><path class="c" d="M150.06,64.055l.27.12-.031.479-.78.541.031-.541L20.857,8.8,74.347,99.211h.387l-.9.6L19.629,8.139l-.6-.962Z" transform="translate(69.462 231.78)"/><path class="c" d="M19.1,41.916,94.7,7.177l.362.6L19.045,42.816Z" transform="translate(124.254 288.777)"/></g><g transform="translate(5.929)"><path class="e" d="M4.562,58.619,3.18,58.557l88.1-48.1.246-.123,67.088,51.422.891.706Zm1.382-.707,151.316,3.717L91.433,11.221Z" transform="translate(541.233 185.957)"/><path class="e" d="M29.23,123.327l-.369.307L8.311,81.52l-.123-.369L142.364,7.889l2.181-1.2Zm-.184-.891L140.551,9.7,9.14,81.52Z" transform="translate(402.357 236.564)"/><path class="e" d="M.618,118.934l-.737.43L28.049,7.121l.123-.43L130.647,47.484l.246.061V48.1Zm.4-1.014L129.695,47.914,28.664,7.643Z" transform="translate(671.182 240.834)"/><path class="e" d="M130.222,122.375l-.184.645L3.572,7.459,3.2,7.183l.737-.491,153.9,3.778h.43Zm-.553-.737L157.345,11.176,4.585,7.4Z" transform="translate(541.763 237.178)"/><path class="e" d="M141.915,62.613l-.491.061-.43.491L7.094,136.3l-1.72.952L113.562,8.15l.154-.123,114.793,6.3h.092l.645.614ZM8.415,134.738,140.533,62.613l.584-.645h.491L227.526,15,114.054,8.795Z" transform="translate(404.096 181.902)"/><path class="e" d="M70.284,75.016l-.123.461L2.827,23.9l-.4-.369.983-.491L93.6,10.385l.614-.061Zm-.461-.737L93.077,11.215,3.841,23.717Z" transform="translate(629.624 173.123)"/><path class="e" d="M-.126,15.789,85.761,9.061,86.007,9l17.878,47.643.276.707Zm3.164.491L102.9,56.091,85.516,9.8Z" transform="translate(698.129 231.92)"/><path class="e" d="M63.521,73.379l-.86.123L2.362,16.981l-.645-.614,172.665-4.3,1.536-.061Zm-.584-.676h.307L172.908,12.773,3.5,17.043Z" transform="translate(569.759 123.461)"/><path class="e" d="M1.8,11.776.446,10.517,47.229,28.671l.338-.891L63.51,70.325Zm1.874.768L61.728,67.622,47.444,29.531Z" transform="translate(721.21 172.347)"/><path class="e" d="M1.032,75.483l-.584.061,23.9-64.661.154-.553L85.537,68.172l.522.614Zm.461-.768,82.938-6.543L24.807,11.651Z" transform="translate(698.599 172.871)"/><path class="e" d="M24.666,163.916l-.338.891L-.646,98.456l-.092-.184L76.64,11.832Zm-.338-1.2L74.767,15.027.153,98.456Z" transform="translate(744.449 37.47)"/><path class="e" d="M157.283,146.249l-.246.307L.345,14.869-.73,13.978,233.064,60.7l.614.123Zm-.338-.707,75.32-84.228L1.912,15.3Z" transform="translate(587.166 -10.2)"/><path class="e" d="M102.013,63.045l-.154.154L7.34,15.862l149.473-3.655Zm-.246-.737,53.142-49.3L10.289,16.6Z" transform="translate(416.137 127.559)"/><path class="e" d="M149.566,103.789h-.184L2.151,107.444H1.69L25.066,14.093l.092-.369L321.433,98.813l2.273.645ZM2.642,106.707l146.432-3.594.307-.338.338.338,169.256-4.3L25.711,14.615Z" transform="translate(422.801 36.715)"/><path class="e" d="M9.112,183.86,23.089,8.615l.061-.584,93.505,46.783.369.246ZM10,181.648,115.887,55.306,23.8,9.168Z" transform="translate(401.494 135.176)"/><path class="e" d="M33.316,107.286l-.338,1.321-21.5-77.1-.092-.276L56.047,13.873l.676-.184Zm-.4-1.567L55.678,14.826l-43.466,16.8Z" transform="translate(392.035 36.627)"/><path class="e" d="M13.247,57.4l-1.106-.246L123.831,13.9l.4-.184,21.257,76.119.123.676Zm1.259-.43L144.6,89.5,123.739,14.732Z" transform="translate(279.863 53.831)"/><path class="e" d="M13.223,67.706l-.645-.061L63.293,8.359l.307-.307,75.412,70.375.8.737Zm.829-.676,123.67,11.212L63.631,9.127Z" transform="translate(272.238 239.227)"/><path class="e" d="M132.293,115.206l-.276.184L12.586,59.054l-.154-.061-.307-.737,208.912-47.7,1.106-.215Zm-.4-.676,88.253-103L13.538,58.746Z" transform="translate(203.822 132.872)"/><path class="e" d="M85.17,124.47l-.338.338L15.625,9.462l-.584-1.044L135.3,65.185l.461.184Zm-.246-.922,49.7-57.934L16.853,10.107Z" transform="translate(200.629 182.34)"/><path class="e" d="M88.169,183.227l-.031.768-75.75-70.528-.246-.246L101.5,8.872l.737-.829Zm-.676-.768L101.347,10.193,13.156,113.16Z" transform="translate(323.205 134.672)"/><path class="e" d="M6.227,62.872l-.86-.031L60.076,12.064,60.168,12h.645l60.269,56.521.768.676ZM60.414,12.679,7.149,62.165l112.7,6.174L60.536,12.679Z" transform="translate(511.707 127.825)"/><path class="e" d="M2.852,61.274l-1.137-.307,140.719-47,156.692,131.6,1.352,1.137ZM4.173,60.9l293.2,84.167L142.342,14.828Z" transform="translate(445.261 -10.036)"/><path class="e" d="M22.241,55.135,11.551,16.861l-.184-.676L67,37.073l.891.369Zm.491-1.014,43.128-16.68L12.473,17.383Z" transform="translate(381.361 13.427)"/><path class="e" d="M21.577,50.841h-.43v-.492L40.806,15.915l.154-.246L163.432,40.151l2.672.553Zm.584-.8,138.476-9.707L41.329,16.5Z" transform="translate(-17.276 33.572)"/><path class="e" d="M25.934,54.529,25.2,55.665V15.64l20.089,4.024.461.061Zm.031-1.628L44.611,20.278,25.965,16.531Z" transform="translate(-21.326 29.638)"/><path class="e" d="M23.056,222.133l-.86,1.137v-.952l-.983-.061.983-.522V19L164.389,9.043h.737Zm-.092-1.2L163.683,9.811,22.964,19.733Z" transform="translate(-18.325 64.68)"/><path class="e" d="M160.4,61,14.548,7.735,11.937,6.691,140.215,18.333h.215l20.4,41.961.092.215ZM17.436,7.95l142.5,52.159-20-41.039Z" transform="translate(270.821 299.198)"/><path class="e" d="M83.342,130.5l-.307.061L12.568,12.97l-.461-.8L159.891,49.186h0l131.933,32.93,1.474.43Zm76.242-80.051v-.584L13.612,13.308,83.434,129.7,290.2,82.484l-130.121-32.5Z" transform="translate(133.22 61.306)"/><path class="e" d="M17.445,146.881l-.768.031L110.612,7.975l.154-.307.584.369,69.392,115.5Zm.737-.86,161.392-23.038L110.95,8.682Z" transform="translate(105.396 183.274)"/><path class="e" d="M138.287,147.035l-.123.215L19.409,104.061l-.492-.307.43-.338L231.3,8.19l1.229-.522Zm-.43-.676L230.471,9.327,20.484,103.661Z" transform="translate(-15.2 182.936)"/><path class="e" d="M232.079,127.447,18.927,223.072,161.3,9.552l.276-.492,70.743,117.772.215.43ZM20.893,221.321l210.571-94.488L161.581,10.442Z" transform="translate(-15.517 64.356)"/><path class="e" d="M94.2,60.962l-.092.184L3.739,73.864l-2,.276L114.569,12.489l.952-.491Zm-.584-.491,20.4-46.845L5.643,72.881Z" transform="translate(629.388 123.038)"/><path class="e" d="M47.091,78.99,1.26,61.235l-.307-.123L21.964,12.7l.4-.86L47.276,78.13l.031.061ZM1.905,60.621,46.477,77.946,22.3,13.838Z" transform="translate(721.839 123.01)"/><path class="e" d="M16.1,116.2l-.092,1.751L.279,76.239l-.031-.184L22.641,10.5Zm-.614-1.751L21.6,15.817.985,76.055Z" transform="translate(768.16 125.147)"/><path class="e" d="M6.7,22.727a4.562,4.562,0,1,0,4.577-4.608A4.523,4.523,0,0,0,6.7,22.727Z" transform="translate(576.723 -18.119)"/><path class="e" d="M1.658,18.438a4.569,4.569,0,0,0,4.608,4.546,4.577,4.577,0,1,0,0-9.154A4.582,4.582,0,0,0,1.658,18.438Z" transform="translate(736.647 117.919)"/><path class="e" d="M2.313,16.831A4.543,4.543,0,0,0,6.89,21.378a4.546,4.546,0,1,0,0-9.093A4.543,4.543,0,0,0,2.313,16.831Z" transform="translate(715.902 166.985)"/><path class="e" d="M.1,18.326a4.592,4.592,0,1,0,4.608-4.608A4.6,4.6,0,0,0,.1,18.326Z" transform="translate(786.063 121.441)"/><path class="e" d="M-.859,21.169a4.537,4.537,0,0,0,4.577,4.608,4.577,4.577,0,1,0,0-9.154A4.523,4.523,0,0,0-.859,21.169Z" transform="translate(816.512 29.331)"/><path class="e" d="M7.252,18.268a4.592,4.592,0,1,0,4.577-4.577A4.595,4.595,0,0,0,7.252,18.268Z" transform="translate(559.217 122.297)"/><path class="e" d="M5.262,16.432a4.593,4.593,0,1,0,4.577-4.546A4.523,4.523,0,0,0,5.262,16.432Z" transform="translate(622.336 179.548)"/><path class="e" d="M.333,14.971A4.556,4.556,0,0,0,4.91,19.579a4.592,4.592,0,1,0,0-9.185A4.549,4.549,0,0,0,.333,14.971Z" transform="translate(778.673 226.871)"/><path class="e" d="M3.032,14.789A4.577,4.577,0,1,0,7.64,10.181,4.575,4.575,0,0,0,3.032,14.789Z" transform="translate(693.097 233.627)"/><path class="e" d="M-.259,13.428a4.577,4.577,0,1,0,9.154,0A4.517,4.517,0,0,0,4.349,8.882,4.55,4.55,0,0,0-.259,13.428Z" transform="translate(797.481 274.89)"/><path class="e" d="M-.989,14.7a4.543,4.543,0,0,0,4.546,4.577,4.592,4.592,0,1,0,0-9.185A4.531,4.531,0,0,0-.989,14.7Z" transform="translate(820.635 236.418)"/><path class="e" d="M3.96,11.2A4.577,4.577,0,1,0,8.537,6.589,4.549,4.549,0,0,0,3.96,11.2Z" transform="translate(663.663 347.557)"/><path class="e" d="M8.983,16.633a4.592,4.592,0,0,0,9.185,0,4.593,4.593,0,0,0-9.185,0Z" transform="translate(504.313 173.234)"/><path class="e" d="M8.075,14.85a4.577,4.577,0,1,0,9.154,0,4.577,4.577,0,0,0-9.154,0Z" transform="translate(533.144 229.726)"/><path class="e" d="M12.448,12.563a4.577,4.577,0,1,0,4.608-4.608A4.55,4.55,0,0,0,12.448,12.563Z" transform="translate(394.441 304.262)"/><path class="e" d="M11.8,11.13a4.523,4.523,0,0,0,4.577,4.546,4.547,4.547,0,1,0,0-9.092A4.523,4.523,0,0,0,11.8,11.13Z" transform="translate(414.837 347.808)"/><path class="e" d="M14.907,14.77a4.592,4.592,0,1,0,4.608-4.577A4.55,4.55,0,0,0,14.907,14.77Z" transform="translate(316.416 233.308)"/><path class="e" d="M16.524,12.844a4.577,4.577,0,1,0,9.154,0,4.577,4.577,0,0,0-9.154,0Z" transform="translate(265.159 293.413)"/><path class="e" d="M18.813,16.59a4.593,4.593,0,1,0,9.185,0,4.593,4.593,0,0,0-9.185,0Z" transform="translate(192.526 174.536)"/><path class="e" d="M25.686,13.471a4.577,4.577,0,1,0,9.154,0,4.577,4.577,0,0,0-9.154,0Z" transform="translate(-25.44 273.465)"/><path class="e" d="M21.87,12.063a4.562,4.562,0,1,0,9.123,0,4.562,4.562,0,0,0-9.123,0Z" transform="translate(95.626 318.123)"/><path class="e" d="M11.268,21.137a4.593,4.593,0,1,0,9.185,0,4.593,4.593,0,0,0-9.185,0Z" transform="translate(431.838 30.315)"/><path class="e" d="M13.048,21.885a4.577,4.577,0,1,0,4.546-4.577A4.531,4.531,0,0,0,13.048,21.885Z" transform="translate(375.411 7.573)"/><path class="e" d="M16.3,19.279a4.577,4.577,0,1,0,4.577-4.608A4.549,4.549,0,0,0,16.3,19.279Z" transform="translate(272.232 91.214)"/><path class="e" d="M21.1,20.479a4.577,4.577,0,1,0,4.577-4.608A4.523,4.523,0,0,0,21.1,20.479Z" transform="translate(120.113 53.183)"/><path class="e" d="M25.694,20.167A4.577,4.577,0,1,0,30.3,15.529,4.55,4.55,0,0,0,25.694,20.167Z" transform="translate(-25.694 64)"/><path class="e" d="M25.753,20.24a3.456,3.456,0,1,0,3.44-3.41A3.442,3.442,0,0,0,25.753,20.24Z" transform="translate(-25.323 25.038)"/><path class="e" d="M25.073,21.211a4.577,4.577,0,1,0,9.154,0,4.577,4.577,0,0,0-9.154,0Z" transform="translate(-5.997 28.029)"/><path class="e" d="M12.027,18.191a4.6,4.6,0,0,0,4.608,4.577,4.592,4.592,0,1,0-4.608-4.577Z" transform="translate(407.764 125.723)"/><path class="e" d="M.007,9.185l17.34,46.138,21.447-36.06.75.181-21.9,36.837-.209.181h-.421L-.831,9.007Z" transform="translate(784.418 232.583)"/><path class="e" d="M-.835,10.212,40.05,21.732l-.6.6L-.835,10.932Z" transform="translate(784.031 229.697)"/></g></g></g></g></svg>