<svg xmlns="http://www.w3.org/2000/svg" width="415.848" height="590.475" viewBox="0 0 415.848 590.475"><defs><style>.a{fill:#00a0dd;}.b{fill:#00b7e6;}.c{fill:#00a7e7;}.d{fill:#008dcd;}.e{fill:#0071a6;}.f{fill:none;stroke:#fff;stroke-miterlimit:10;stroke-width:0.4px;}.g{opacity:0.5;}.h{fill:#fff;}</style></defs><g transform="translate(-408.11 -26.079)"><g transform="translate(433.746 30.115)"><path class="a" d="M458.6,158.278l-34.48-23.15v49.256l38.42,29.554,24.628-4.926,2.955-35.465Z" transform="translate(-418.208 75.69)"/><path class="a" d="M459.079,154.627l21.673,35.465H456.124Z" transform="translate(-387.16 94.61)"/><path class="b" d="M492.1,102.627l-23.314,21.962-44.66,42.071,34.48,23.151,31.524,15.269L525.1,137.005Z" transform="translate(-418.208 44.157)"/><path class="c" d="M491.626,152.529l-22.165-65.9-10.836,31.524Z" transform="translate(-384.734 28.633)"/><path class="c" d="M478.624,85.86l25.613-16.747-24.628-.985Z" transform="translate(-365.329 10.683)"/><path class="d" d="M477.624,64.493l19.21-8.866,37.927,2.955L505.208,81.241Z" transform="translate(-366.299 -1.445)"/><path class="b" d="M483.535,28.127l13.3,54.182-19.21,8.866Z" transform="translate(-366.299 -28.127)"/><path class="c" d="M531.851,85.265,480.624,28.127l13.3,54.182Z" transform="translate(-363.389 -28.127)"/><path class="c" d="M540.881,83.233,539.9,57.127H521.178L491.624,79.785Z" transform="translate(-352.716 0.01)"/><path class="b" d="M546.663,46.127,517.11,93.906,516.124,67.8Z" transform="translate(-328.944 -10.663)"/><path class="c" d="M537.312,90.458l8.866-44.331L516.624,93.906Z" transform="translate(-328.46 -10.663)"/><path class="d" d="M597.068,91.443,535.99,46.127l-8.865,44.331Z" transform="translate(-318.272 -10.663)"/><path class="e" d="M625.747,131.28l-50.9-14.777-7.224-41.375Z" transform="translate(-278.977 17.475)"/><path class="b" d="M588.25,68.627l-20.688,3.448-49.256-3.448-34.3,22.439-19.882,13.026,8.866,25.416,13.3,40.486L546.875,187.5l12.807-61.078,14.448-16.134,22.986-20.972Z" transform="translate(-379.398 11.168)"/><path class="c" d="M492.6,120.076l-34.972,68.075L479.3,223.616l6.9-34.479,22.658-14.777,36.45,6.9,7.881-43.674Z" transform="translate(-385.704 61.086)"/><path class="a" d="M551.38,68.627l8.866,20.688L537.26,110.287l-14.448,16.134L510.005,187.5l-7.881,43.674,32.982-11.822,13.647-19.046,17.732-30.312,33.659-69.35,21.18-31.032Z" transform="translate(-342.528 11.168)"/><path class="d" d="M614.934,80.949l-9.851-11.822L583.9,100.159l-33.659,69.35-31.38,49.358,49.769-15.926,23.568-35.5,29.957-45.12Z" transform="translate(-326.286 11.653)"/><path class="b" d="M591.619,171.688l-22.987-34.644L518.864,152.97Z" transform="translate(-326.286 77.549)"/><path class="b" d="M597.649,96.127,567.11,211.387l-22.986-34.644Z" transform="translate(-301.777 37.85)"/><path class="b" d="M588.464,189.222,586.33,96.127l-30.539,115.26Z" transform="translate(-290.458 37.85)"/><path class="d" d="M615.842,120.374l-18.718-16.747h39.405Z" transform="translate(-250.354 45.127)"/><path class="a" d="M588.124,174.383l36.45-54.008-18.718-16.747Z" transform="translate(-259.086 45.127)"/><path class="b" d="M686.455,154.629l-56.487,51.719-83.735,89.647L421.121,462.973l26.6-118.215,36.449-63.048,50.577-37.652,34.144-25.4,38.42-39.405Z" transform="translate(-421.121 94.611)"/><path class="c" d="M595.737,163.846l-79.145,24.628-1.97-31.524,8.354-11.821Z" transform="translate(-330.403 85.394)"/><path class="d" d="M604.5,181.724l-.009-.189,17.7-70.63-50.9-14.777,2.134,93.094,33.494,42.36,18.225,39.9,12.806-36.45Z" transform="translate(-275.419 37.85)"/><path class="e" d="M624.574,112.127l-2.956,107.379-33.494-53.371Z" transform="translate(-259.086 53.374)"/><path class="a" d="M673.333,204.775l-18.225-39.9-4.433,73.392L625.062,302.8l-61.571,18.717-41.868,47.779,61.078,8.866,28.568-35.465,44.331-8.866,10.836-57.137,23.643-40.39,19.7-16.74Z" transform="translate(-323.608 104.555)"/><path class="c" d="M516.624,93.906l20.688-3.448,8.866-44.331Z" transform="translate(-328.46 -10.663)"/><path class="c" d="M572.475,88.226,562.624,76.4,584.3,61.627Z" transform="translate(-283.828 4.376)"/><g transform="translate(0 227.075)"><path class="c" d="M752.617,185.739l-4.433,73.392L722.57,323.657,661,342.374l-41.868,47.779-51.227,4.926-146.784,78.81L546.232,306.91l83.735-89.646,56.487-51.719,32.667-22.165Z" transform="translate(-421.121 -143.379)"/></g></g><g transform="translate(412.146 30.115)"><path class="f" d="M410.158,487.793l33-145.526,51.651-60.559L617.952,179.256l79.139-24.628L574.607,297.54l-79.8-15.831,79.8,15.831L476.094,410.2,443.16,342.267,476.094,410.2Z" transform="translate(-410.158 94.61)"/><path class="f" d="M442.42,330.63l20.6-44.379,37.927-7.9,6.4-69.061-22.165-65.9,29.554-36.45,24.628.985L511.78,91.175l5.911-63.048,49.749,45.83,13.3,2.812,37.435-13.177,61.078,45.316,21.673-14.777,46.3,82.751h39.405L762.988,301.007l-12.807,36.45,36.45,14.784-43.346,57.13-4.433,66-42.524,8.689-32.457,39.118-67.7-10.8-47.943,4.789-85.213,70.08" transform="translate(-378.856 -28.127)"/><path class="f" d="M410.158,498.708l84.161-23.274-18.225-54.318,98.513-112.661,4.925,96.9,47.943-4.79,44.166-58.192,61.571-18.717,25.613-64.526,4.433-73.392-33.494-42.36-32.674,22.165-25.449,176.83-97.035-33.918" transform="translate(-410.158 83.694)"/><path class="f" d="M574.124,275.867l36.942,39.9,4.433-66-15.762-38.42,59.107-18.71" transform="translate(-251.07 131.483)"/><path class="f" d="M418.908,168.864l66.921,45.1,44.331-76.963-33-34.378Z" transform="translate(-401.669 44.157)"/><path class="f" d="M418.908,136.246l4.365,59.436,41.959,30.046,51.628-17.8,6.9-34.479,59.108-7.881h24.628l1.97,31.524" transform="translate(-401.669 76.775)"/><path class="f" d="M480.624,28.127l13.3,54.182,8.374,25.613,28.076-33.966,13.3,2.812,8.166,27.679,20.4,3.475,8.866-44.331-8.866,44.331,8.866,20.688-37.435,37.106-12.807,61.078L569.614,239.6l72.571-130.693-61.078,19.7-8.866-20.688,69.944.985" transform="translate(-341.789 -28.127)"/><path class="f" d="M556.932,66.864,475.374,171.7l60.585,17.506" transform="translate(-346.883 9.457)"/><path class="f" d="M514.624,230.688l8.354-11.821,49.769-15.926,53.525-80.616,2.135,93.095-2.135-93.095,50.9,14.777L619.048,80.949,609.2,69.127" transform="translate(-308.8 11.653)"/><path class="f" d="M605.856,103.627l-17.732,70.755,33.494,53.371" transform="translate(-237.486 45.127)"/></g><g class="g" transform="translate(408.11 26.079)"><circle class="h" cx="4.036" cy="4.036" r="4.036" transform="translate(135.88 78.81)"/><circle class="h" cx="4.036" cy="4.036" r="4.036" transform="translate(160.508 79.795)"/><circle class="h" cx="4.036" cy="4.036" r="4.036" transform="translate(201.884 48.641)"/><circle class="h" cx="4.036" cy="4.036" r="4.036" transform="translate(239.318 35.465)"/><circle class="h" cx="4.036" cy="4.036" r="4.036" transform="translate(231.246 79.207)"/><circle class="h" cx="4.036" cy="4.036" r="4.036" transform="translate(201.884 137.589)"/><circle class="h" cx="4.036" cy="4.036" r="4.036" transform="translate(106.326 115.26)"/><circle class="h" cx="4.036" cy="4.036" r="4.036" transform="translate(95.49 146.784)"/><circle class="h" cx="4.036" cy="4.036" r="4.036" transform="translate(17.24 213.021)"/><circle class="h" cx="4.036" cy="4.036" r="4.036" transform="translate(239.318 100.483)"/><circle class="h" cx="4.036" cy="4.036" r="4.036" transform="translate(21.605 273.865)"/><circle class="h" cx="4.036" cy="4.036" r="4.036" transform="translate(63.564 302.503)"/><circle class="h" cx="4.036" cy="4.036" r="4.036" transform="translate(84.161 258.125)"/><circle class="h" cx="4.036" cy="4.036" r="4.036" transform="translate(189.077 198.667)"/><circle class="h" cx="4.036" cy="4.036" r="4.036" transform="translate(227.825 211.474)"/><circle class="h" cx="4.036" cy="4.036" r="4.036" transform="translate(122.088 251.207)"/><circle class="h" cx="4.036" cy="4.036" r="4.036" transform="translate(181.196 242.341)"/><circle class="h" cx="4.036" cy="4.036" r="4.036" transform="translate(115.192 284.702)"/><circle class="h" cx="4.036" cy="4.036" r="4.036" transform="translate(317.472 455.937)"/><circle class="h" cx="4.036" cy="4.036" r="4.036" transform="translate(205.824 242.341)"/><circle class="h" cx="4.036" cy="4.036" r="4.036" transform="translate(214.178 230.52)"/><circle class="h" cx="4.036" cy="4.036" r="4.036" transform="translate(300.396 80.78)"/><circle class="h" cx="4.036" cy="4.036" r="4.036" transform="translate(322.069 66.004)"/><circle class="h" cx="4.036" cy="4.036" r="4.036" transform="translate(310.248 91.767)"/><circle class="h" cx="4.036" cy="4.036" r="4.036" transform="translate(317.472 133.977)"/><circle class="h" cx="4.036" cy="4.036" r="4.036" transform="translate(319.606 227.072)"/><circle class="h" cx="4.036" cy="4.036" r="4.036" transform="translate(263.947 214.593)"/><circle class="h" cx="4.036" cy="4.036" r="4.036" transform="translate(368.37 148.754)"/><circle class="h" cx="4.036" cy="4.036" r="4.036" transform="translate(350.638 219.509)"/><circle class="h" cx="4.036" cy="4.036" r="4.036" transform="translate(407.775 148.754)"/><circle class="h" cx="4.036" cy="4.036" r="4.036" transform="translate(364.43 381.244)"/><circle class="h" cx="4.036" cy="4.036" r="4.036" transform="translate(164.353 393.558)"/><circle class="h" cx="4.036" cy="4.036" r="4.036" transform="translate(207.794 273.865)"/><circle class="h" cx="4.036" cy="4.036" r="4.036" transform="translate(261.484 426.067)"/><circle class="h" cx="4.036" cy="4.036" r="4.036" transform="translate(84.161 376.318)"/><circle class="h" cx="4.036" cy="4.036" r="4.036" transform="translate(65.936 504.811)"/><circle class="h" cx="4.036" cy="4.036" r="4.036" transform="translate(84.161 559.129)"/><circle class="h" cx="4.036" cy="4.036" r="4.036" transform="translate(217.317 484.259)"/><circle class="h" cx="4.036" cy="4.036" r="4.036" transform="translate(348.667 342.714)"/><circle class="h" cx="4.036" cy="4.036" r="4.036" transform="translate(371.325 309.33)"/><circle class="h" cx="4.036" cy="4.036" r="4.036" transform="translate(286.933 249.237)"/><circle class="h" cx="4.036" cy="4.036" r="4.036" transform="translate(407.775 324.114)"/><circle class="h" cx="4.036" cy="4.036" r="4.036" transform="translate(359.996 447.248)"/><circle class="h" cx="4.036" cy="4.036" r="4.036" transform="translate(323.054 407.35)"/><circle class="h" cx="4.036" cy="4.036" r="4.036" transform="translate(285.015 495.055)"/><circle class="h" cx="4.036" cy="4.036" r="4.036" transform="translate(169.374 489.049)"/><circle class="h" cx="4.036" cy="4.036" r="4.036" transform="translate(0 582.403)"/><circle class="h" cx="4.036" cy="4.036" r="4.036" transform="translate(33.002 436.877)"/><circle class="h" cx="4.036" cy="4.036" r="4.036" transform="translate(384.132 272.88)"/><circle class="h" cx="4.036" cy="4.036" r="4.036" transform="translate(128.492 181.162)"/><circle class="h" cx="4.036" cy="4.036" r="4.036" transform="translate(138.835)"/><circle class="h" cx="4.036" cy="4.036" r="4.036" transform="translate(188.584 45.83)"/><circle class="h" cx="4.036" cy="4.036" r="4.036" transform="translate(152.135 54.182)"/><circle class="h" cx="4.036" cy="4.036" r="4.036" transform="translate(132.925 63.048)"/></g><g transform="translate(410.176 28.145)"><circle class="h" cx="1.97" cy="1.97" r="1.97" transform="translate(138.835)"/><circle class="h" cx="1.97" cy="1.97" r="1.97" transform="translate(132.925 63.048)"/><circle class="h" cx="1.97" cy="1.97" r="1.97" transform="translate(135.88 78.81)"/><circle class="h" cx="1.97" cy="1.97" r="1.97" transform="translate(160.508 79.795)"/><circle class="h" cx="1.97" cy="1.97" r="1.97" transform="translate(201.884 48.641)"/><circle class="h" cx="1.97" cy="1.97" r="1.97" transform="translate(239.318 35.465)"/><circle class="h" cx="1.97" cy="1.97" r="1.97" transform="translate(231.246 79.207)"/><circle class="h" cx="1.97" cy="1.97" r="1.97" transform="translate(201.884 137.589)"/><circle class="h" cx="1.97" cy="1.97" r="1.97" transform="translate(106.326 115.26)"/><circle class="h" cx="1.97" cy="1.97" r="1.97" transform="translate(95.49 146.784)"/><circle class="h" cx="1.97" cy="1.97" r="1.97" transform="translate(17.24 213.021)"/><circle class="h" cx="1.97" cy="1.97" r="1.97" transform="translate(239.318 100.483)"/><circle class="h" cx="1.97" cy="1.97" r="1.97" transform="translate(21.605 273.865)"/><circle class="h" cx="1.97" cy="1.97" r="1.97" transform="translate(63.564 302.503)"/><circle class="h" cx="1.97" cy="1.97" r="1.97" transform="translate(84.161 258.125)"/><circle class="h" cx="1.97" cy="1.97" r="1.97" transform="translate(189.077 198.667)"/><circle class="h" cx="1.97" cy="1.97" r="1.97" transform="translate(227.825 211.474)"/><circle class="h" cx="1.97" cy="1.97" r="1.97" transform="translate(122.088 251.207)"/><circle class="h" cx="1.97" cy="1.97" r="1.97" transform="translate(181.196 242.341)"/><circle class="h" cx="1.97" cy="1.97" r="1.97" transform="translate(115.192 284.702)"/><circle class="h" cx="1.97" cy="1.97" r="1.97" transform="translate(317.472 455.937)"/><circle class="h" cx="1.97" cy="1.97" r="1.97" transform="translate(205.824 242.341)"/><circle class="h" cx="1.97" cy="1.97" r="1.97" transform="translate(214.178 230.52)"/><circle class="h" cx="1.97" cy="1.97" r="1.97" transform="translate(300.396 80.78)"/><circle class="h" cx="1.97" cy="1.97" r="1.97" transform="translate(322.069 66.004)"/><circle class="h" cx="1.97" cy="1.97" r="1.97" transform="translate(310.248 91.767)"/><circle class="h" cx="1.97" cy="1.97" r="1.97" transform="translate(317.472 133.977)"/><circle class="h" cx="1.97" cy="1.97" r="1.97" transform="translate(319.606 227.072)"/><circle class="h" cx="1.97" cy="1.97" r="1.97" transform="translate(263.947 214.593)"/><circle class="h" cx="1.97" cy="1.97" r="1.97" transform="translate(368.37 148.754)"/><circle class="h" cx="1.97" cy="1.97" r="1.97" transform="translate(350.638 219.509)"/><circle class="h" cx="1.97" cy="1.97" r="1.97" transform="translate(407.775 148.754)"/><circle class="h" cx="1.97" cy="1.97" r="1.97" transform="translate(364.43 381.244)"/><circle class="h" cx="1.97" cy="1.97" r="1.97" transform="translate(164.353 393.558)"/><circle class="h" cx="1.97" cy="1.97" r="1.97" transform="translate(207.794 273.865)"/><circle class="h" cx="1.97" cy="1.97" r="1.97" transform="translate(261.484 426.067)"/><circle class="h" cx="1.97" cy="1.97" r="1.97" transform="translate(84.161 376.319)"/><circle class="h" cx="1.97" cy="1.97" r="1.97" transform="translate(65.936 504.811)"/><circle class="h" cx="1.97" cy="1.97" r="1.97" transform="translate(84.161 559.129)"/><circle class="h" cx="1.97" cy="1.97" r="1.97" transform="translate(217.317 484.259)"/><circle class="h" cx="1.97" cy="1.97" r="1.97" transform="translate(348.667 342.713)"/><circle class="h" cx="1.97" cy="1.97" r="1.97" transform="translate(371.325 309.33)"/><circle class="h" cx="1.97" cy="1.97" r="1.97" transform="translate(286.933 249.237)"/><circle class="h" cx="1.97" cy="1.97" r="1.97" transform="translate(407.775 324.114)"/><circle class="h" cx="1.97" cy="1.97" r="1.97" transform="translate(359.996 447.248)"/><circle class="h" cx="1.97" cy="1.97" r="1.97" transform="translate(323.054 407.35)"/><circle class="h" cx="1.97" cy="1.97" r="1.97" transform="translate(285.015 495.055)"/><circle class="h" cx="1.97" cy="1.97" r="1.97" transform="translate(169.374 489.049)"/><circle class="h" cx="1.97" cy="1.97" r="1.97" transform="translate(0 582.403)"/><circle class="h" cx="1.97" cy="1.97" r="1.97" transform="translate(33.002 436.877)"/><circle class="h" cx="1.97" cy="1.97" r="1.97" transform="translate(384.132 272.88)"/><circle class="h" cx="1.97" cy="1.97" r="1.97" transform="translate(128.492 181.162)"/><circle class="h" cx="1.97" cy="1.97" r="1.97" transform="translate(152.135 54.182)"/><circle class="h" cx="1.97" cy="1.97" r="1.97" transform="translate(188.584 45.83)"/></g></g></svg>