<svg xmlns="http://www.w3.org/2000/svg" width="181.133" height="126.189" viewBox="0 0 181.133 126.189"><defs><style>.a,.e{fill:#42495b;}.b{fill:none;stroke:#fff;stroke-miterlimit:10;stroke-width:0.4px;}.c{opacity:0.5;}.d{fill:#fff;}.e{font-size:24px;font-family:Avenir-Black, Avenir;font-weight:800;letter-spacing:0.06em;}</style></defs><g transform="translate(-206.867 -39.811)"><g transform="translate(-201.243 13.732)"><g transform="translate(412.279 26.735)"><path class="a" d="M429.732,138.893l-5.608-3.765v8.011l6.249,4.807,4.005-.8.481-5.768Z" transform="translate(-423.162 -100.84)"/><path class="a" d="M456.6,154.627l3.525,5.768h-4.006Z" transform="translate(-444.908 -114.092)"/><path class="a" d="M435.179,102.627l-3.792,3.572-7.264,6.842,5.608,3.765,5.127,2.483,5.688-11.072Z" transform="translate(-423.162 -78.754)"/><path class="a" d="M463.991,97.346l-3.6-10.718-1.762,5.127Z" transform="translate(-446.606 -67.882)"/><path class="a" d="M478.624,71.011l4.166-2.724-4.006-.16Z" transform="translate(-460.198 -55.31)"/><path class="a" d="M477.624,57.069l3.124-1.442,6.168.481-4.807,3.685Z" transform="translate(-459.518 -46.815)"/><path class="a" d="M478.585,28.127l2.163,8.812-3.124,1.442Z" transform="translate(-459.518 -28.127)"/><path class="a" d="M488.956,37.42l-8.331-9.293,2.163,8.812Z" transform="translate(-461.557 -28.127)"/><path class="a" d="M499.635,61.373l-.16-4.246h-3.044l-4.807,3.685Z" transform="translate(-469.032 -47.835)"/><path class="a" d="M521.091,46.127,516.284,53.9l-.16-4.246Z" transform="translate(-485.681 -40.359)"/><path class="a" d="M519.989,53.337l1.442-7.21L516.624,53.9Z" transform="translate(-486.021 -40.359)"/><path class="a" d="M538.5,53.5l-9.934-7.37-1.442,7.21Z" transform="translate(-493.156 -40.359)"/><path class="a" d="M577.077,84.26l-8.278-2.4-1.175-6.729Z" transform="translate(-520.678 -60.067)"/><path class="a" d="M484.312,68.627l-3.365.561-8.011-.561-5.579,3.649L464.124,74.4l1.442,4.134,2.163,6.585,9.854,2.847,2.083-9.934,2.35-2.624,3.738-3.411Z" transform="translate(-450.344 -55.649)"/><path class="a" d="M463.312,120.076l-5.688,11.072,3.525,5.768,1.122-5.608,3.685-2.4,5.928,1.122,1.282-7.1Z" transform="translate(-445.927 -90.612)"/><path class="a" d="M510.135,68.627l1.442,3.365L507.839,75.4l-2.35,2.624-2.083,9.934-1.282,7.1,5.364-1.923,2.22-3.1,2.884-4.93,5.474-11.279,3.445-5.047Z" transform="translate(-476.167 -55.649)"/><path class="a" d="M534.489,71.05l-1.6-1.923-3.445,5.047-5.474,11.279-5.1,8.028,8.094-2.59,3.833-5.773,4.872-7.338Z" transform="translate(-487.543 -55.989)"/><path class="a" d="M530.7,142.678l-3.739-5.634-8.094,2.59Z" transform="translate(-487.543 -102.143)"/><path class="a" d="M552.829,96.127l-4.967,18.746-3.738-5.634Z" transform="translate(-504.709 -74.337)"/><path class="a" d="M561.1,111.268l-.347-15.141-4.967,18.746Z" transform="translate(-512.637 -74.337)"/><path class="a" d="M600.168,106.351l-3.044-2.724h6.409Z" transform="translate(-540.725 -79.434)"/><path class="a" d="M588.124,115.135l5.928-8.784-3.044-2.724Z" transform="translate(-534.609 -79.434)"/><path class="a" d="M464.275,154.629l-9.187,8.412-13.619,14.58-20.348,27.157,4.326-19.226,5.928-10.254,8.226-6.124,5.553-4.13,6.249-6.409Z" transform="translate(-421.121 -114.092)"/><path class="a" d="M527.814,148.173l-12.872,4.006-.32-5.127,1.359-1.923Z" transform="translate(-484.66 -107.637)"/><path class="a" d="M576.691,110.049v-.031l2.879-11.487-8.278-2.4.347,15.141,5.447,6.889,2.964,6.489,2.083-5.928Z" transform="translate(-523.17 -74.337)"/><path class="a" d="M594.052,112.127l-.481,17.464-5.447-8.68Z" transform="translate(-534.609 -85.21)"/><path class="a" d="M546.3,171.366l-2.964-6.489-.721,11.936-4.166,10.494-10.014,3.044-6.809,7.771,9.934,1.442L536.2,193.8l7.21-1.442,1.762-9.293,3.845-6.569,3.2-2.723Z" transform="translate(-489.419 -121.057)"/><path class="a" d="M516.624,53.9l3.365-.561,1.442-7.21Z" transform="translate(-486.021 -40.359)"/><path class="a" d="M564.226,65.953l-1.6-1.923,3.525-2.4Z" transform="translate(-517.281 -50.893)"/><g transform="translate(0 36.931)"><path class="a" d="M475.035,150.268l-.721,11.936L470.149,172.7l-10.014,3.044-6.809,7.771-8.331.8-23.873,12.818,20.348-27.157,13.619-14.58,9.187-8.412,5.313-3.6Z" transform="translate(-421.121 -143.379)"/></g></g><g transform="translate(408.766 26.735)"><path class="b" d="M410.158,208.813l5.367-23.668,8.4-9.849,20.028-16.663,12.871-4.006L436.9,177.871,423.926,175.3l12.978,2.575-16.022,18.323-5.356-11.049,5.356,11.049Z" transform="translate(-410.158 -114.092)"/><path class="b" d="M442.42,77.326l3.35-7.218,6.168-1.285,1.041-11.232-3.6-10.718,4.807-5.928,4.005.16L453.7,38.381l.961-10.254,8.091,7.454,2.163.457L471,33.9l9.934,7.37,3.525-2.4,7.53,13.459H498.4l-3.845,20.188-2.083,5.928,5.928,2.4-7.05,9.292-.721,10.735-6.916,1.413-5.279,6.362-11.01-1.756-7.8.779-13.859,11.4" transform="translate(-432.082 -28.127)"/><path class="b" d="M410.158,201.168l13.688-3.785-2.964-8.834L436.9,170.226l.8,15.76,7.8-.779,7.183-9.464L462.7,172.7l4.166-10.494.721-11.936-5.447-6.889-5.314,3.6-4.139,28.76L436.9,170.226" transform="translate(-410.158 -106.446)"/><path class="b" d="M574.124,206.169l6.008,6.489.721-10.735-2.563-6.249,9.613-3.043" transform="translate(-521.582 -139.917)"/><path class="b" d="M418.908,113.4l10.884,7.336L437,108.219l-5.367-5.591Z" transform="translate(-416.104 -78.754)"/><path class="b" d="M418.908,136.246l.71,9.667,6.824,4.887,8.4-2.9,1.122-5.608,9.613-1.282h4.005l.32,5.127" transform="translate(-416.104 -101.6)"/><path class="b" d="M480.624,28.127l2.163,8.812,1.362,4.166,4.566-5.524,2.163.457,1.328,4.5,3.318.565,1.442-7.21-1.442,7.21,1.442,3.365L490.878,50.5,488.8,60.438l6.3,2.083,11.8-21.256-9.934,3.2-1.442-3.365,11.376.16" transform="translate(-458.044 -28.127)"/><path class="b" d="M488.638,66.864,475.374,83.915l9.854,2.847" transform="translate(-454.476 -54.451)"/><path class="b" d="M514.624,95.4l1.359-1.923,8.094-2.59,8.705-13.111.347,15.141-.347-15.141,8.278,2.4-9.453-9.133-1.6-1.923" transform="translate(-481.149 -55.989)"/><path class="b" d="M591.008,103.627l-2.884,11.508,5.447,8.68" transform="translate(-531.096 -79.434)"/></g><g class="c" transform="translate(408.11 26.079)"><circle class="d" cx="0.656" cy="0.656" r="0.656" transform="translate(22.099 12.818)"/><circle class="d" cx="0.656" cy="0.656" r="0.656" transform="translate(26.105 12.978)"/><circle class="d" cx="0.656" cy="0.656" r="0.656" transform="translate(32.834 7.911)"/><circle class="d" cx="0.656" cy="0.656" r="0.656" transform="translate(38.923 5.768)"/><circle class="d" cx="0.656" cy="0.656" r="0.656" transform="translate(37.61 12.882)"/><circle class="d" cx="0.656" cy="0.656" r="0.656" transform="translate(32.834 22.377)"/><circle class="d" cx="0.656" cy="0.656" r="0.656" transform="translate(17.293 18.746)"/><circle class="d" cx="0.656" cy="0.656" r="0.656" transform="translate(15.53 23.873)"/><circle class="d" cx="0.656" cy="0.656" r="0.656" transform="translate(2.804 34.646)"/><circle class="d" cx="0.656" cy="0.656" r="0.656" transform="translate(38.923 16.343)"/><circle class="d" cx="0.656" cy="0.656" r="0.656" transform="translate(3.514 44.541)"/><circle class="d" cx="0.656" cy="0.656" r="0.656" transform="translate(10.338 49.199)"/><circle class="d" cx="0.656" cy="0.656" r="0.656" transform="translate(13.688 41.981)"/><circle class="d" cx="0.656" cy="0.656" r="0.656" transform="translate(30.751 32.311)"/><circle class="d" cx="0.656" cy="0.656" r="0.656" transform="translate(37.053 34.394)"/><circle class="d" cx="0.656" cy="0.656" r="0.656" transform="translate(19.856 40.856)"/><circle class="d" cx="0.656" cy="0.656" r="0.656" transform="translate(29.47 39.414)"/><circle class="d" cx="0.656" cy="0.656" r="0.656" transform="translate(18.735 46.304)"/><circle class="d" cx="0.656" cy="0.656" r="0.656" transform="translate(51.633 74.153)"/><circle class="d" cx="0.656" cy="0.656" r="0.656" transform="translate(33.475 39.414)"/><circle class="d" cx="0.656" cy="0.656" r="0.656" transform="translate(34.834 37.492)"/><circle class="d" cx="0.656" cy="0.656" r="0.656" transform="translate(48.856 13.138)"/><circle class="d" cx="0.656" cy="0.656" r="0.656" transform="translate(52.381 10.735)"/><circle class="d" cx="0.656" cy="0.656" r="0.656" transform="translate(50.459 14.925)"/><circle class="d" cx="0.656" cy="0.656" r="0.656" transform="translate(51.633 21.79)"/><circle class="d" cx="0.656" cy="0.656" r="0.656" transform="translate(51.981 36.931)"/><circle class="d" cx="0.656" cy="0.656" r="0.656" transform="translate(42.928 34.901)"/><circle class="d" cx="0.656" cy="0.656" r="0.656" transform="translate(59.912 24.193)"/><circle class="d" cx="0.656" cy="0.656" r="0.656" transform="translate(57.028 35.701)"/><circle class="d" cx="0.656" cy="0.656" r="0.656" transform="translate(66.32 24.193)"/><circle class="d" cx="0.656" cy="0.656" r="0.656" transform="translate(59.271 62.005)"/><circle class="d" cx="0.656" cy="0.656" r="0.656" transform="translate(26.73 64.008)"/><circle class="d" cx="0.656" cy="0.656" r="0.656" transform="translate(33.796 44.541)"/><circle class="d" cx="0.656" cy="0.656" r="0.656" transform="translate(42.528 69.295)"/><circle class="d" cx="0.656" cy="0.656" r="0.656" transform="translate(13.688 61.204)"/><circle class="d" cx="0.656" cy="0.656" r="0.656" transform="translate(10.724 82.102)"/><circle class="d" cx="0.656" cy="0.656" r="0.656" transform="translate(13.688 90.936)"/><circle class="d" cx="0.656" cy="0.656" r="0.656" transform="translate(35.344 78.76)"/><circle class="d" cx="0.656" cy="0.656" r="0.656" transform="translate(56.707 55.739)"/><circle class="d" cx="0.656" cy="0.656" r="0.656" transform="translate(60.392 50.309)"/><circle class="d" cx="0.656" cy="0.656" r="0.656" transform="translate(46.667 40.536)"/><circle class="d" cx="0.656" cy="0.656" r="0.656" transform="translate(66.32 52.714)"/><circle class="d" cx="0.656" cy="0.656" r="0.656" transform="translate(58.55 72.74)"/><circle class="d" cx="0.656" cy="0.656" r="0.656" transform="translate(52.541 66.251)"/><circle class="d" cx="0.656" cy="0.656" r="0.656" transform="translate(46.355 80.516)"/><circle class="d" cx="0.656" cy="0.656" r="0.656" transform="translate(27.547 79.539)"/><circle class="d" cx="0.656" cy="0.656" r="0.656" transform="translate(0 94.722)"/><circle class="d" cx="0.656" cy="0.656" r="0.656" transform="translate(5.367 71.054)"/><circle class="d" cx="0.656" cy="0.656" r="0.656" transform="translate(62.475 44.381)"/><circle class="d" cx="0.656" cy="0.656" r="0.656" transform="translate(20.898 29.464)"/><circle class="d" cx="0.656" cy="0.656" r="0.656" transform="translate(22.58)"/><circle class="d" cx="0.656" cy="0.656" r="0.656" transform="translate(30.671 7.454)"/><circle class="d" cx="0.656" cy="0.656" r="0.656" transform="translate(24.743 8.812)"/><circle class="d" cx="0.656" cy="0.656" r="0.656" transform="translate(21.619 10.254)"/></g><g transform="translate(408.446 26.415)"><circle class="d" cx="0.32" cy="0.32" r="0.32" transform="translate(22.58)"/><circle class="d" cx="0.32" cy="0.32" r="0.32" transform="translate(21.619 10.254)"/><circle class="d" cx="0.32" cy="0.32" r="0.32" transform="translate(22.099 12.818)"/><circle class="d" cx="0.32" cy="0.32" r="0.32" transform="translate(26.105 12.978)"/><circle class="d" cx="0.32" cy="0.32" r="0.32" transform="translate(32.834 7.911)"/><circle class="d" cx="0.32" cy="0.32" r="0.32" transform="translate(38.923 5.768)"/><circle class="d" cx="0.32" cy="0.32" r="0.32" transform="translate(37.61 12.882)"/><circle class="d" cx="0.32" cy="0.32" r="0.32" transform="translate(32.834 22.377)"/><circle class="d" cx="0.32" cy="0.32" r="0.32" transform="translate(17.293 18.746)"/><circle class="d" cx="0.32" cy="0.32" r="0.32" transform="translate(15.53 23.873)"/><circle class="d" cx="0.32" cy="0.32" r="0.32" transform="translate(2.804 34.646)"/><circle class="d" cx="0.32" cy="0.32" r="0.32" transform="translate(38.923 16.343)"/><circle class="d" cx="0.32" cy="0.32" r="0.32" transform="translate(3.514 44.541)"/><circle class="d" cx="0.32" cy="0.32" r="0.32" transform="translate(10.338 49.199)"/><circle class="d" cx="0.32" cy="0.32" r="0.32" transform="translate(13.688 41.981)"/><circle class="d" cx="0.32" cy="0.32" r="0.32" transform="translate(30.751 32.311)"/><circle class="d" cx="0.32" cy="0.32" r="0.32" transform="translate(37.053 34.394)"/><circle class="d" cx="0.32" cy="0.32" r="0.32" transform="translate(19.856 40.856)"/><circle class="d" cx="0.32" cy="0.32" r="0.32" transform="translate(29.47 39.414)"/><circle class="d" cx="0.32" cy="0.32" r="0.32" transform="translate(18.735 46.304)"/><circle class="d" cx="0.32" cy="0.32" r="0.32" transform="translate(51.633 74.153)"/><circle class="d" cx="0.32" cy="0.32" r="0.32" transform="translate(33.475 39.414)"/><circle class="d" cx="0.32" cy="0.32" r="0.32" transform="translate(34.834 37.492)"/><circle class="d" cx="0.32" cy="0.32" r="0.32" transform="translate(48.856 13.138)"/><circle class="d" cx="0.32" cy="0.32" r="0.32" transform="translate(52.381 10.735)"/><circle class="d" cx="0.32" cy="0.32" r="0.32" transform="translate(50.459 14.925)"/><circle class="d" cx="0.32" cy="0.32" r="0.32" transform="translate(51.633 21.79)"/><circle class="d" cx="0.32" cy="0.32" r="0.32" transform="translate(51.981 36.931)"/><circle class="d" cx="0.32" cy="0.32" r="0.32" transform="translate(42.928 34.901)"/><circle class="d" cx="0.32" cy="0.32" r="0.32" transform="translate(59.912 24.193)"/><circle class="d" cx="0.32" cy="0.32" r="0.32" transform="translate(57.028 35.701)"/><circle class="d" cx="0.32" cy="0.32" r="0.32" transform="translate(66.32 24.193)"/><circle class="d" cx="0.32" cy="0.32" r="0.32" transform="translate(59.271 62.005)"/><circle class="d" cx="0.32" cy="0.32" r="0.32" transform="translate(26.73 64.008)"/><circle class="d" cx="0.32" cy="0.32" r="0.32" transform="translate(33.796 44.541)"/><circle class="d" cx="0.32" cy="0.32" r="0.32" transform="translate(42.528 69.295)"/><circle class="d" cx="0.32" cy="0.32" r="0.32" transform="translate(13.688 61.204)"/><circle class="d" cx="0.32" cy="0.32" r="0.32" transform="translate(10.724 82.102)"/><circle class="d" cx="0.32" cy="0.32" r="0.32" transform="translate(13.688 90.936)"/><circle class="d" cx="0.32" cy="0.32" r="0.32" transform="translate(35.344 78.76)"/><circle class="d" cx="0.32" cy="0.32" r="0.32" transform="translate(56.707 55.739)"/><circle class="d" cx="0.32" cy="0.32" r="0.32" transform="translate(60.392 50.309)"/><circle class="d" cx="0.32" cy="0.32" r="0.32" transform="translate(46.667 40.536)"/><circle class="d" cx="0.32" cy="0.32" r="0.32" transform="translate(66.32 52.714)"/><circle class="d" cx="0.32" cy="0.32" r="0.32" transform="translate(58.55 72.74)"/><circle class="d" cx="0.32" cy="0.32" r="0.32" transform="translate(52.541 66.251)"/><circle class="d" cx="0.32" cy="0.32" r="0.32" transform="translate(46.355 80.516)"/><circle class="d" cx="0.32" cy="0.32" r="0.32" transform="translate(27.547 79.539)"/><circle class="d" cx="0.32" cy="0.32" r="0.32" transform="translate(0 94.722)"/><circle class="d" cx="0.32" cy="0.32" r="0.32" transform="translate(5.367 71.054)"/><circle class="d" cx="0.32" cy="0.32" r="0.32" transform="translate(62.475 44.381)"/><circle class="d" cx="0.32" cy="0.32" r="0.32" transform="translate(20.898 29.464)"/><circle class="d" cx="0.32" cy="0.32" r="0.32" transform="translate(24.743 8.812)"/><circle class="d" cx="0.32" cy="0.32" r="0.32" transform="translate(30.671 7.454)"/></g></g><text class="e" transform="translate(334 91)"><tspan x="-53.208" y="0">UniCode</tspan><tspan x="0.72" y="33"></tspan><tspan x="0" y="66"></tspan></text></g></svg>